<svg width="16" height="16" fill="none" xmlns="http://www.w3.org/2000/svg"><g clip-path="url(#clip0_3005_3181)"><path d="M7.143 8a.857.857 0 101.714 0 .857.857 0 00-1.714 0zm3.571 0a.857.857 0 101.715 0 .857.857 0 00-1.715 0zM3.572 8a.857.857 0 101.714 0 .857.857 0 00-1.714 0zm11.807-3.1A8.003 8.003 0 008 0h-.036A7.981 7.981 0 000 8.037c.006 1.24.3 2.462.857 3.57v2.714a.822.822 0 00.822.822h2.716a8.025 8.025 0 003.57.857h.037c1.07 0 2.107-.207 3.084-.613a7.937 7.937 0 002.55-1.7A7.98 7.98 0 0016 8.035a7.97 7.97 0 00-.62-3.135zm-2.698 7.821A6.608 6.608 0 018 14.643h-.03a6.668 6.668 0 01-3.091-.777l-.15-.08H2.214V11.27l-.08-.15a6.666 6.666 0 01-.777-3.09A6.602 6.602 0 013.28 3.32a6.593 6.593 0 014.693-1.963h.03a6.611 6.611 0 014.7 1.945 6.611 6.611 0 011.944 4.728 6.617 6.617 0 01-1.966 4.691z" fill="#fff"/></g><defs><clipPath id="clip0_3005_3181"><path fill="#fff" d="M0 0h16v16H0z"/></clipPath></defs></svg>